# xmcd CD database generated by RipIT
#
# Track frame offsets:
# 150
# 19204
# 34121
# 49556
# 59698
# 74137
# 89588
# 107659
# 120716
# 131406
# 150408
# 169732
#
# Disc length: 2390 seconds
#
# Revision: 1
# Processed by: cddbd v1.5.2PL0 Copyright (c) Steve Scherf et al.
# Submitted via: RipIT 3.9.0 www.suwald.com/ripit/ripit.html on 2017-06-25 at 14:09
#
DISCID=a509540c
DTITLE=Sera Cahoone - Deer Creek Canyon
DYEAR=2012
DGENRE=Americana
TTITLE0=Worry All Your Life
TTITLE1=Deer Creek Canyon
TTITLE2=Naked
TTITLE3=Nervous Wreck
TTITLE4=And Still We Move
TTITLE5=Every Little Word
TTITLE6=One To Blame
TTITLE7=Rumpshaker
TTITLE8=Shakin' Hands
TTITLE9=Anyway You Like
TTITLE10=Here With Me
TTITLE11=Oh My
EXTD=
EXTT0=
EXTT1=
EXTT2=
EXTT3=
EXTT4=
EXTT5=
EXTT6=
EXTT7=
EXTT8=
EXTT9=
EXTT10=
EXTT11=
PLAYORDER=
